<svg width="44" height="38" viewBox="0 0 44 38" fill="none" xmlns="http://www.w3.org/2000/svg">
<path fill-rule="evenodd" clip-rule="evenodd" d="M39.4423 0.257153C39.9833 0.0294578 40.5755 -0.0490728 41.1571 0.0297342C41.7387 0.108541 42.2886 0.341806 42.7495 0.705247C43.2104 1.06869 43.5655 1.54902 43.7777 2.09625C43.99 2.64348 44.0517 3.2376 43.9565 3.81677L38.9914 33.9334C38.5097 36.8385 35.3223 38.5045 32.6581 37.0574C30.4295 35.8468 27.1194 33.9816 24.1421 32.0354C22.6535 31.0612 18.0934 27.9416 18.6538 25.7218C19.1354 23.8238 26.7976 16.6914 31.176 12.4509C32.8945 10.785 32.1108 9.8239 30.0814 11.3563C25.0397 15.1611 16.9506 20.9472 14.2754 22.5759C11.9155 24.012 10.6852 24.2572 9.21404 24.012C6.5301 23.5654 4.04099 22.8737 2.00943 22.0308C-0.735812 20.8924 -0.602272 17.1183 2.00724 16.0193L39.4423 0.257153Z" fill="black"/>
<path fill-rule="evenodd" clip-rule="evenodd" d="M39.4423 0.257153C39.9833 0.0294578 40.5755 -0.0490728 41.1571 0.0297342C41.7387 0.108541 42.2886 0.341806 42.7495 0.705247C43.2104 1.06869 43.5655 1.54902 43.7777 2.09625C43.99 2.64348 44.0517 3.2376 43.9565 3.81677L38.9914 33.9334C38.5097 36.8385 35.3223 38.5045 32.6581 37.0574C30.4295 35.8468 27.1194 33.9816 24.1421 32.0354C22.6535 31.0612 18.0934 27.9416 18.6538 25.7218C19.1354 23.8238 26.7976 16.6914 31.176 12.4509C32.8945 10.785 32.1108 9.8239 30.0814 11.3563C25.0397 15.1611 16.9506 20.9472 14.2754 22.5759C11.9155 24.012 10.6852 24.2572 9.21404 24.012C6.5301 23.5654 4.04099 22.8737 2.00943 22.0308C-0.735812 20.8924 -0.602272 17.1183 2.00724 16.0193L39.4423 0.257153Z" fill="url(#paint0_linear_72_2436)"/>
<defs>
<linearGradient id="paint0_linear_72_2436" x1="29.1637" y1="0.789355" x2="16.9739" y2="37.4942" gradientUnits="userSpaceOnUse">
<stop offset="0.00166742" stop-color="#843C8F"/>
<stop offset="0.6354" stop-color="#DD5C5F"/>
<stop offset="1" stop-color="#F39667"/>
</linearGradient>
</defs>
</svg>
